<?xml version="1.0" encoding="UTF-8" standalone="yes"?>
<!-- Created with sK1/UniConvertor (http://sk1project.org/) -->
<svg xmlns="http://www.w3.org/2000/svg" xmlns:xlink="http://www.w3.org/1999/xlink"
  width="135pt" height="135pt" viewBox="0 0 135 135"
  fill-rule="evenodd">
<g>
<g>
<path style="stroke:none; fill:#000000" d="M 0.1 28.2C 0.2 43.8 0.4 55.6 0.7 54.5C 1.9 49.4 6.2 38.6 9.2 33.3C 13.6 25.4 26 13.3 34 8.9C 39.7 5.8 49.5 2 55.5 0.699997C 56.6 0.399994 44.6 0.199997 28.8 0.0999908L -1.90735e-06 -1.52588e-05L 0.1 28.2z"/>
<path style="stroke:none; fill:#000000" d="M 79.5 0.699997C 85.5 2 95.3 5.7 100.8 8.8C 106.7 12 108.8 13.6 105.4 12.3C 104.3 11.9 100.9 14.6 94.4 21.1L 85 30.5L 85 40.2L 85 50L 108.9 50L 132.8 50L 133.8 53.7C 134.5 56.5 134.8 49.8 134.9 28.7L 135 0L 106.3 0.100006C 90.4 0.200012 78.4 0.399994 79.5 0.699997z"/>
<path style="stroke:none; fill:#000000" d="M 134.3 72.5C 134.3 74.7 134.5 75.5 134.7 74.2C 134.9 73 134.9 71.2 134.7 70.2C 134.4 69.3 134.2 70.3 134.3 72.5z"/>
<path style="stroke:none; fill:#000000" d="M 0.1 106.2L 0 135L 28.8 134.9C 44.6 134.9 57.1 134.7 56.5 134.5C 56 134.3 54.3 133.9 52.8 133.6L 50 133L 50 109L 50 85L 40.2 85L 30.5 85L 21.1 94.4C 14.6 100.9 11.9 104.3 12.3 105.4C 13.5 108.6 12.1 106.9 9.1 101.7C 6.1 96.4 1.5 84.6 0.699998 80C 0.499998 78.6 0.2 90.4 0.1 106.2z"/>
<path style="stroke:none; fill:#000000" d="M 130 81.5L 126.6 85L 105.8 85L 85 85L 85 105.8L 85 126.6L 81.5 130C 79.6 131.8 78.3 133.7 78.6 134.2C 78.9 134.6 91.7 135 107.1 135L 135 135L 135 106.5C 135 90.8 134.6 78 134.2 78C 133.8 78 131.9 79.6 130 81.5z"/>
<path style="stroke:none; fill:#000000" d="M 72.3 134.7C 73.2 134.9 74.8 134.9 75.8 134.7C 76.7 134.4 75.9 134.2 74 134.2C 72.1 134.2 71.3 134.4 72.3 134.7z"/>
</g>
</g>
</svg>