<?xml version="1.0" encoding="utf-8"?>
<!-- Generator: Adobe Illustrator 16.0.4, SVG Export Plug-In . SVG Version: 6.00 Build 0)  -->
<!DOCTYPE svg PUBLIC "-//W3C//DTD SVG 1.1//EN" "http://www.w3.org/Graphics/SVG/1.1/DTD/svg11.dtd">
<svg version="1.1" id="Lager_1" xmlns="http://www.w3.org/2000/svg" xmlns:xlink="http://www.w3.org/1999/xlink" x="0px" y="0px"
	 width="24.001px" height="24.001px" viewBox="115.999 116 24.001 24.001" enable-background="new 115.999 116 24.001 24.001"
	 xml:space="preserve">
<g id="Layer_1">
	<circle fill="#FFDA00" cx="128" cy="128" r="12"/>
</g>
<g id="Layer_3">
	<path fill="#826C00" d="M129.758,122.489h-9.375c-0.647,0-1.172,0.525-1.172,1.172v5.469c0,0.647,0.525,1.172,1.172,1.172h0.728
		h0.081v1.622l2.142-1.622h6.425c0.647,0,1.172-0.524,1.172-1.172v-5.469C130.93,123.014,130.405,122.489,129.758,122.489z"/>
</g>
<g id="Layer_2">
	<path fill="#F9F9FA" d="M135.617,126.378h-9.375c-0.647,0-1.172,0.524-1.172,1.172v5.469c0,0.646,0.525,1.172,1.172,1.172h0.525
		l2.142,1.621v-1.621h6.708c0.647,0,1.172-0.525,1.172-1.172v-5.469C136.789,126.903,136.265,126.378,135.617,126.378z"/>
</g>
<g id="Layer_4">
	<circle fill="#FFDA00" cx="128.142" cy="130.302" r="0.938"/>
	<circle fill="#FFDA00" cx="130.97" cy="130.302" r="0.938"/>
	<circle fill="#FFDA00" cx="133.718" cy="130.302" r="0.938"/>
</g>
</svg>
