<?xml version="1.0" encoding="utf-8"?>
<!-- Generator: Adobe Illustrator 16.0.4, SVG Export Plug-In . SVG Version: 6.00 Build 0)  -->
<!DOCTYPE svg PUBLIC "-//W3C//DTD SVG 1.1//EN" "http://www.w3.org/Graphics/SVG/1.1/DTD/svg11.dtd">
<!--suppress XmlHighlighting -->
<svg version="1.1" xmlns="http://www.w3.org/2000/svg" x="0px" y="0px" width="24px"
	 height="24px" viewBox="0 0 24 24" enable-background="new 0 0 24 24" xml:space="preserve">
<g id="Lager_2" display="none">
	<path display="inline" d="M11.999,11.062c1.692,0,3.063-1.371,3.063-3.062c0-1.692-1.371-3.062-3.063-3.062
		c-1.692,0-3.062,1.37-3.062,3.062C8.937,9.692,10.307,11.062,11.999,11.062z M11.999,13.703c-2.044,0-6.125,1.027-6.125,3.063v1.53
		h12.25v-1.53C18.123,14.73,14.044,13.703,11.999,13.703z"/>
	<path display="inline" fill="none" d="M2.812,2.312h18.375v18.375H2.812V2.312z"/>
</g>
<g id="Lager_3" display="none">
	<g display="inline">
		<path fill="none" d="M4.75,12c0,1.34,0.358,2.616,1.043,3.736l9.943-9.943C14.616,5.108,13.34,4.75,12,4.75
			C8.002,4.75,4.75,8.002,4.75,12z"/>
		<path fill="none" d="M18.207,8.264l-9.943,9.943C9.384,18.892,10.661,19.25,12,19.25c3.998,0,7.25-3.252,7.25-7.25
			C19.25,10.661,18.892,9.384,18.207,8.264z"/>
		<path d="M12,2.75c-5.101,0-9.25,4.149-9.25,9.25s4.149,9.25,9.25,9.25s9.25-4.149,9.25-9.25S17.101,2.75,12,2.75z M5.1,17.363
			C3.89,15.821,3.25,13.967,3.25,12c0-4.825,3.925-8.75,8.75-8.75c1.967,0,3.821,0.64,5.363,1.85l0.665,0.522L5.622,18.028
			L5.1,17.363z M12,20.75c-1.967,0-3.821-0.64-5.363-1.85l-0.666-0.522L18.378,5.972L18.9,6.637c1.21,1.542,1.85,3.396,1.85,5.363
			C20.75,16.825,16.825,20.75,12,20.75z"/>
		<path fill="#FFFFFF" d="M12,1.25C6.072,1.25,1.25,6.072,1.25,12S6.072,22.75,12,22.75S22.75,17.928,22.75,12S17.928,1.25,12,1.25z
			 M12,21.25c-5.101,0-9.25-4.149-9.25-9.25S6.899,2.75,12,2.75s9.25,4.149,9.25,9.25S17.101,21.25,12,21.25z"/>
		<path fill="#FFFFFF" d="M17.363,5.1C15.821,3.89,13.967,3.25,12,3.25c-4.825,0-8.75,3.925-8.75,8.75
			c0,1.967,0.64,3.821,1.85,5.363l0.522,0.665L18.028,5.622L17.363,5.1z M5.793,15.736C5.108,14.616,4.75,13.34,4.75,12
			c0-3.998,3.252-7.25,7.25-7.25c1.34,0,2.616,0.358,3.736,1.043L5.793,15.736z"/>
		<path fill="#FFFFFF" d="M18.9,6.637l-0.522-0.666L5.972,18.378L6.637,18.9c1.542,1.21,3.396,1.85,5.363,1.85
			c4.825,0,8.75-3.925,8.75-8.75C20.75,10.033,20.11,8.179,18.9,6.637z M12,19.25c-1.339,0-2.616-0.358-3.736-1.043l9.943-9.943
			C18.892,9.384,19.25,10.661,19.25,12C19.25,15.998,15.998,19.25,12,19.25z"/>
	</g>
</g>
<g id="Lager_4">
	<g>
		<path d="M12.729,13.741l-4.466,4.466c0.056,0.034,0.116,0.058,0.173,0.09h7.144c0.949-0.542,1.767-1.291,2.387-2.188
			C17.304,14.706,14.605,13.914,12.729,13.741z"/>
		<path d="M11.999,4.938c-1.692,0-3.062,1.37-3.062,3.062c0,1.243,0.743,2.307,1.805,2.787l4.045-4.044
			C14.307,5.68,13.242,4.938,11.999,4.938z"/>
	</g>
</g>
<g id="Lager_1">
	<path fill="none" d="M0,0h24v24H0V0z"/>
	<path d="M12,2C6.48,2,2,6.48,2,12c0,5.52,4.48,10,10,10c5.52,0,10-4.48,10-10C22,6.48,17.52,2,12,2z M4,12c0-4.42,3.58-8,8-8
		c1.85,0,3.55,0.63,4.9,1.69L5.69,16.9C4.63,15.55,4,13.85,4,12z M12,20c-1.85,0-3.55-0.63-4.9-1.689L18.311,7.1
		C19.37,8.45,20,10.15,20,12C20,16.42,16.42,20,12,20z"/>
</g>
</svg>
